{"title":"MASK the movie","uid":10650670,"size":1163674868,"categoryP":"video","categoryS":"movies","magnet":"?xt=urn:btih:6ab8326d1b0704975016c3b58cbfde06cdc4d4c0&amp;dn=MASK+the+movie&amp;tr=udp%3A%2F%2Ftracker.openbittorrent.com%3A80&amp;tr=udp%3A%2F%2Fopen.demonii.com%3A1337&amp;tr=udp%3A%2F%2Ftracker.coppersurfer.tk%3A6969&amp;tr=udp%3A%2F%2Fexodus.desync.com%3A6969","seeders":1,"leechers":0,"uploader":"brundle33069","files":1,"time":1406607154,"description":"Format                                   : AVI\nFormat/Info                              : Audio Video Interleave\nFormat profile                           : OpenDML\nFile size                                : 1.08 GiB\nDuration                                 : 1h 41mn\nOverall bit rate                         : 1 534 Kbps\nWriting application                      : Lavf52.43.0\n\nVideo\nID                                       : 0\nFormat                                   : MPEG-4 Visual\nFormat profile                           : Advanced Simple@L4\nFormat settings, BVOP                    : No\nFormat settings, QPel                    : No\nFormat settings, GMC                     : No warppoints\nFormat settings, Matrix                  : Default (H.263)\nCodec ID                                 : XVID\nCodec ID/Hint                            : XviD\nDuration                                 : 1h 41mn\nBit rate                                 : 1 198 Kbps\nWidth                                    : 720 pixels\nHeight                                   : 408 pixels\nDisplay aspect ratio                     : 16:9\nFrame rate                               : 23.976 fps\nColor space                              : YUV\nChroma subsampling                       : 4:2:0\nBit depth                                : 8 bits\nScan type                                : Progressive\nCompression mode                         : Lossy\nBits/(Pixel*Frame)                       : 0.170\nStream size                              : 866 MiB (78%)\nWriting library                          : XviD 1.1.2 (UTC 2006-11-01)\n\nAudio\nID                                       : 1\nFormat                                   : MPEG Audio\nFormat version                           : Version 1\nFormat profile                           : Layer 3\nMode                                     : Joint stereo\nMode extension                           : MS Stereo\nCodec ID                                 : 55\nCodec ID/Hint                            : MP3\nDuration                                 : 1h 41mn\nBit rate mode                            : Constant\nBit rate                                 : 320 Kbps\nChannel(s)                               : 2 channels\nSampling rate                            : 48.0 KHz\nCompression mode                         : Lossy\nStream size                              : 231 MiB (21%)\nAlignment                                : Aligned on interleaves\nInterleave, duration                     : 24 ms (0.58 video frame)\nWriting library                          : LAME3.98.2\n\n\n\n&lt;a href=&quot;http://www.dazzlejunction.com/generators/image-generator.php&quot; title=&quot;html image code&quot; target=&quot;_blank&quot;&gt;&lt;img src=&quot;http://cdn.movieclips.com/keyart/515367x480.jpg&quot; border=&quot;0&quot;&gt;&lt;/a&gt;","torrent":{"xt":"urn:btih:6ab8326d1b0704975016c3b58cbfde06cdc4d4c0","amp;dn":"MASK+the+movie","amp;tr":["udp%3A%2F%2Ftracker.openbittorrent.com%3A80","udp%3A%2F%2Fopen.demonii.com%3A1337","udp%3A%2F%2Ftracker.coppersurfer.tk%3A6969","udp%3A%2F%2Fexodus.desync.com%3A6969"],"infoHash":"6ab8326d1b0704975016c3b58cbfde06cdc4d4c0","infoHashBuffer":{"type":"Buffer","data":[106,184,50,109,27,7,4,151,80,22,195,181,140,191,222,6,205,196,212,192]},"announce":[],"urlList":[]}}